<svg width="49" height="49" viewBox="0 0 49 49" fill="none" xmlns="http://www.w3.org/2000/svg">
<path d="M8.5 47V48.5H10V47H8.5ZM8.5 9.5V8H7V9.5H8.5ZM40.5 9.5H42V8H40.5V9.5ZM40.5 34.0794V35.5794H42V34.0794H40.5ZM39.5 34.0794H38V35.5794H39.5V34.0794ZM39.5 10.5H41V9H39.5V10.5ZM9.5 10.5V9H8V10.5H9.5ZM9.5 47H8V48.5H9.5V47ZM20.5 27.5V26H19V27.5H20.5ZM20.5 46.5H19V48H20.5V46.5ZM29.5 46.5V48H31V46.5H29.5ZM29.5 27.5H31V26H29.5V27.5ZM21.5 28.5V27H20V28.5H21.5ZM21.5 45.5H20V47H21.5V45.5ZM28.5 28.5H30V27H28.5V28.5ZM28.5 45.5V47H30V45.5H28.5ZM21.5 20L20 19.9999L21.5 20ZM28.5 20L30 20.0001L28.5 20ZM22.5 20L24 20.0001L22.5 20ZM27.5 20L26 19.9999L27.5 20ZM3.5 8C3.5 5.51472 5.51472 3.5 8 3.5V0.5C3.85787 0.5 0.5 3.85786 0.5 8H3.5ZM3.5 41V8H0.5V41H3.5ZM8 45.5C5.51472 45.5 3.5 43.4853 3.5 41H0.5C0.5 45.1421 3.85786 48.5 8 48.5V45.5ZM8.5 45.5H8V48.5H8.5V45.5ZM10 47V10H7V47H10ZM10 10V9.5H7V10H10ZM8.5 11H9V8H8.5V11ZM9 11H40V8H9V11ZM40 11H40.5V8H40V11ZM39 9.5V10H42V9.5H39ZM39 10V34.0794H42V10H39ZM40.5 32.5794H39.5V35.5794H40.5V32.5794ZM41 34.0794V10.5H38V34.0794H41ZM39.5 9H9.5V12H39.5V9ZM8 10.5V47H11V10.5H8ZM41 45.5H9.5V48.5H41V45.5ZM45.5 41C45.5 43.4853 43.4853 45.5 41 45.5V48.5C45.1421 48.5 48.5 45.1421 48.5 41H45.5ZM45.5 8V41H48.5V8H45.5ZM41 3.5C43.4853 3.5 45.5 5.51472 45.5 8H48.5C48.5 3.85787 45.1421 0.5 41 0.5V3.5ZM8 3.5H41V0.5H8V3.5ZM20.5 29H21V26H20.5V29ZM22 28V27.5H19V28H22ZM22 46V28H19V46H22ZM22 46.5V46H19V46.5H22ZM21 45H20.5V48H21V45ZM29 45H21V48H29V45ZM29.5 45H29V48H29.5V45ZM28 46V46.5H31V46H28ZM28 28V46H31V28H28ZM28 27.5V28H31V27.5H28ZM29 29H29.5V26H29V29ZM21 29H29V26H21V29ZM20 28.5V45.5H23V28.5H20ZM28.5 27H21.5V30H28.5V27ZM30 45.5V28.5H27V45.5H30ZM21.5 47H28.5V44H21.5V47ZM25.0001 16C22.4879 16 20.0001 17.3842 20 19.9999L23 20C23 19.8341 23.0666 19.6347 23.3421 19.4309C23.6371 19.2127 24.1784 19 25.0001 19V16ZM30 20.0001C30.0001 17.3842 27.5122 16 25.0001 16V19C25.8217 19 26.363 19.2127 26.658 19.4309C26.9334 19.6347 27 19.834 27 20L30 20.0001ZM24.9999 24C27.5121 24 29.9999 22.6158 30 20.0001L27 20C27 20.166 26.9334 20.3653 26.6579 20.5691C26.3629 20.7873 25.8216 21 24.9999 21V24ZM20 19.9999C19.9999 22.6158 22.4878 24 24.9999 24V21C24.1783 21 23.637 20.7873 23.342 20.5691C23.0666 20.3653 23 20.166 23 20L20 19.9999ZM24.9999 20C24.2989 20 24.0239 19.8315 23.9621 19.7842C23.8963 19.7338 24 19.7797 24 20.0001L21 20C20.9999 21.7755 22.7009 23 24.9999 23V20ZM26 19.9999C26 19.7796 26.1037 19.7338 26.0379 19.7842C25.976 19.8315 25.701 20 24.9999 20V23C27.2989 23 28.9999 21.7755 29 20L26 19.9999ZM25.0001 20C25.7011 20 25.9761 20.1685 26.0379 20.2158C26.1037 20.2662 26 20.2203 26 19.9999L29 20C29.0001 18.2245 27.299 17 25.0001 17V20ZM24 20.0001C24 20.2204 23.8963 20.2663 23.9622 20.2158C24.024 20.1685 24.299 20 25.0001 20V17C22.7011 17 21.0001 18.2245 21 20L24 20.0001Z" fill="url(#paint0_linear_833_5307)"/>
<defs>
<linearGradient id="paint0_linear_833_5307" x1="24" y1="-6" x2="24" y2="75.5" gradientUnits="userSpaceOnUse">
<stop stop-color="#9829C8"/>
<stop offset="1" stop-color="#CF1820"/>
</linearGradient>
</defs>
</svg>
